<?xml version="1.0" encoding="utf-8"?>
<svg version="1.1" xmlns:xlink="http://www.w3.org/1999/xlink" width="16px" height="19px" xmlns="http://www.w3.org/2000/svg">
  <g transform="matrix(1 0 0 1 -407 -176 )">
    <path d="M 12.041666666666666 0.7209821428571435  L 15.291666666666666 4.029017857142857  C 15.486111111111112 4.226934523809523  15.652777777777779 4.495535714285715  15.791666666666666 4.834821428571428  C 15.930555555555555 5.174107142857143  16 5.4851190476190474  16 5.767857142857143  L 16 17.982142857142858  C 16 18.264880952380953  15.902777777777777 18.505208333333332  15.708333333333334 18.703125  C 15.513888888888891 18.901041666666668  15.277777777777779 19  15 19  L 1 19  C 0.7222222222222223 19  0.48611111111111116 18.901041666666668  0.2916666666666667 18.703125  C 0.09722222222222221 18.505208333333332  0 18.264880952380953  0 17.982142857142858  L 0 1.0178571428571435  C 0 0.7351190476190471  0.09722222222222221 0.49479166666666596  0.2916666666666667 0.296875  C 0.48611111111111116 0.09895833333333404  0.7222222222222223 0  1 0  L 10.333333333333334 0  C 10.611111111111112 0  10.916666666666666 0.07068452380952461  11.25 0.21205357142857173  C 11.583333333333334 0.35342261904761885  11.847222222222223 0.5230654761904754  12.041666666666666 0.7209821428571435  Z M 11.09375 1.6752232142857153  C 11.010416666666666 1.5904017857142847  10.868055555555557 1.5126488095238073  10.666666666666666 1.4419642857142847  L 10.666666666666666 5.428571428571428  L 14.583333333333334 5.428571428571428  C 14.513888888888891 5.2235863095238075  14.4375 5.078683035714285  14.354166666666666 4.993861607142857  L 11.09375 1.6752232142857153  Z M 1.3333333333333333 17.642857142857142  L 14.666666666666666 17.642857142857142  L 14.666666666666666 6.785714285714285  L 10.333333333333334 6.785714285714285  C 10.055555555555555 6.785714285714285  9.819444444444445 6.686755952380951  9.625 6.488839285714285  C 9.430555555555555 6.290922619047619  9.333333333333334 6.0505952380952355  9.333333333333334 5.767857142857143  L 9.333333333333334 1.3571428571428565  L 1.3333333333333333 1.3571428571428565  L 1.3333333333333333 17.642857142857142  Z M 4 9.160714285714285  L 4 8.482142857142856  C 4 8.383184523809522  4.03125 8.301897321428571  4.09375 8.23828125  C 4.156250000000001 8.174665178571429  4.236111111111112 8.142857142857144  4.333333333333333 8.142857142857144  L 11.666666666666666 8.142857142857144  C 11.763888888888891 8.142857142857144  11.84375 8.174665178571429  11.90625 8.23828125  C 11.96875 8.301897321428571  12 8.383184523809522  12 8.482142857142856  L 12 9.160714285714285  C 12 9.259672619047619  11.96875 9.340959821428571  11.90625 9.404575892857144  C 11.84375 9.468191964285715  11.763888888888891 9.5  11.666666666666666 9.5  L 4.333333333333333 9.5  C 4.236111111111112 9.5  4.156250000000001 9.468191964285715  4.09375 9.404575892857144  C 4.03125 9.340959821428571  4 9.259672619047619  4 9.160714285714285  Z M 4.333333333333333 10.857142857142856  L 11.666666666666666 10.857142857142856  C 11.763888888888891 10.857142857142856  11.84375 10.888950892857144  11.90625 10.952566964285714  C 11.96875 11.016183035714286  12 11.097470238095237  12 11.196428571428571  L 12 11.875  C 12 11.973958333333332  11.96875 12.055245535714286  11.90625 12.118861607142856  C 11.84375 12.182477678571429  11.763888888888891 12.214285714285714  11.666666666666666 12.214285714285714  L 4.333333333333333 12.214285714285714  C 4.236111111111112 12.214285714285714  4.156250000000001 12.182477678571429  4.09375 12.118861607142856  C 4.03125 12.055245535714286  4 11.973958333333332  4 11.875  L 4 11.196428571428571  C 4 11.097470238095237  4.03125 11.016183035714286  4.09375 10.952566964285714  C 4.156250000000001 10.888950892857144  4.236111111111112 10.857142857142856  4.333333333333333 10.857142857142856  Z M 4.333333333333333 13.571428571428571  L 11.666666666666666 13.571428571428571  C 11.763888888888891 13.571428571428571  11.84375 13.603236607142856  11.90625 13.666852678571429  C 11.96875 13.73046875  12 13.811755952380953  12 13.910714285714286  L 12 14.589285714285714  C 12 14.688244047619047  11.96875 14.76953125  11.90625 14.833147321428571  C 11.84375 14.896763392857144  11.763888888888891 14.928571428571429  11.666666666666666 14.928571428571429  L 4.333333333333333 14.928571428571429  C 4.236111111111112 14.928571428571429  4.156250000000001 14.896763392857144  4.09375 14.833147321428571  C 4.03125 14.76953125  4 14.688244047619047  4 14.589285714285714  L 4 13.910714285714286  C 4 13.811755952380953  4.03125 13.73046875  4.09375 13.666852678571429  C 4.156250000000001 13.603236607142856  4.236111111111112 13.571428571428571  4.333333333333333 13.571428571428571  Z " fill-rule="nonzero" fill="#ffffff" stroke="none" transform="matrix(1 0 0 1 407 176 )" />
  </g>
</svg>