<?xml version="1.0" encoding="utf-8"?>
<svg version="1.1" xmlns:xlink="http://www.w3.org/1999/xlink" width="22px" height="20px" xmlns="http://www.w3.org/2000/svg">
  <g transform="matrix(1 0 0 1 -346 -211 )">
    <path d="M 21.86572265625 9.592633928571427  C 21.955240885416668 9.70796130952381  22 9.840029761904761  22 9.988839285714286  C 22 10.145089285714286  21.953450520833336 10.280877976190474  21.8603515625 10.396205357142856  C 21.767252604166668 10.511532738095237  21.649088541666668 10.584077380952381  21.505859375 10.613839285714286  L 19.3037109375 14.587053571428573  C 19.325195312500004 14.654017857142856  19.335937500000004 14.720982142857144  19.3359375 14.787946428571427  C 19.335937500000004 14.93675595238095  19.291178385416668 15.068824404761907  19.20166015625 15.184151785714286  C 19.112141927083336 15.299479166666664  18.995768229166668 15.37202380952381  18.8525390625 15.401785714285714  L 16.779296875 19.162946428571427  C 16.80078125 19.222470238095237  16.8115234375 19.281994047619047  16.8115234375 19.341517857142858  C 16.8115234375 19.51264880952381  16.75244140625 19.661458333333336  16.63427734375 19.787946428571427  C 16.51611328125 19.914434523809522  16.37109375 19.977678571428573  16.19921875 19.977678571428573  C 16.020182291666668 19.977678571428573  15.873372395833334 19.910714285714285  15.7587890625 19.776785714285715  L 11.4619140625 19.776785714285715  C 11.340169270833334 19.925595238095237  11.186197916666668 20  11 20  C 10.813802083333334 20  10.659830729166668 19.925595238095237  10.5380859375 19.776785714285715  L 6.251953125 19.776785714285715  C 6.130208333333334 19.925595238095237  5.976236979166667 20  5.7900390625 20  C 5.625325520833334 20  5.482096354166667 19.938616071428573  5.3603515625 19.815848214285715  C 5.238606770833334 19.693080357142858  5.177734375 19.542410714285715  5.177734375 19.363839285714285  C 5.177734375 19.304315476190478  5.192057291666667 19.229910714285715  5.220703125 19.140625  L 3.1474609375 15.401785714285714  C 3.0042317708333335 15.37202380952381  2.887858072916667 15.299479166666664  2.79833984375 15.184151785714286  C 2.7088216145833335 15.068824404761907  2.6640625 14.93675595238095  2.6640625 14.787946428571427  C 2.6640625 14.720982142857144  2.6748046875 14.654017857142856  2.6962890625 14.587053571428573  L 0.4833984375 10.613839285714286  C 0.34016927083333337 10.576636904761905  0.22379557291666669 10.500372023809524  0.13427734375 10.385044642857144  C 0.04475911458333333 10.269717261904763  0 10.13764880952381  0 9.988839285714286  C 0 9.832589285714286  0.04833984375 9.696800595238095  0.14501953125 9.581473214285714  C 0.24169921875000003 9.466145833333332  0.36165364583333337 9.39360119047619  0.5048828125 9.363839285714286  L 2.642578125 5.524553571428572  C 2.6425781250000004 5.517113095238095  2.640787760416667 5.50595238095238  2.63720703125 5.491071428571428  C 2.6336263020833335 5.4761904761904745  2.6318359375 5.465029761904761  2.6318359375 5.4575892857142865  C 2.6318359375 5.189732142857142  2.753580729166667 5  2.9970703125 4.888392857142858  L 5.2421875 0.8370535714285721  C 5.213541666666667 0.7626488095238093  5.19921875 0.6956845238095233  5.19921875 0.636160714285714  C 5.19921875 0.45758928571428603  5.260091145833334 0.3069196428571419  5.3818359375 0.18415178571428603  C 5.503580729166667 0.06138392857142794  5.646809895833334 0  5.8115234375 0  C 5.997721354166667 0  6.1552734375 0.078125  6.2841796875 0.234375  L 10.5380859375 0.234375  C 10.652669270833334 0.078125  10.806640625 0  11 0  C 11.193359375 0  11.347330729166668 0.078125  11.4619140625 0.234375  L 15.7373046875 0.234375  C 15.8662109375 0.078125  16.023763020833336 0  16.2099609375 0  C 16.374674479166668 0  16.517903645833336 0.06138392857142794  16.6396484375 0.18415178571428603  C 16.761393229166668 0.3069196428571419  16.822265625000004 0.45758928571428603  16.822265625 0.636160714285714  C 16.822265625000004 0.6808035714285721  16.807942708333336 0.7477678571428581  16.779296875 0.8370535714285721  L 19.0029296875 4.8325892857142865  C 19.167643229166668 4.840029761904761  19.307291666666668 4.905133928571428  19.421875 5.0279017857142865  C 19.536458333333336 5.150669642857142  19.593750000000004 5.293898809523809  19.59375 5.4575892857142865  C 19.593750000000004 5.5543154761904745  19.568684895833336 5.654761904761902  19.5185546875 5.758928571428572  L 21.52734375 9.375  C 21.663411458333336 9.404761904761905  21.776204427083336 9.477306547619047  21.86572265625 9.592633928571427  Z M 11 18.727678571428573  C 11.150390625 18.727678571428573  11.2900390625 18.78720238095238  11.4189453125 18.90625  L 15.59765625 18.90625  L 11.923828125 14.955357142857144  L 10.3876953125 14.955357142857144  L 6.7138671875 18.90625  L 10.5810546875 18.90625  C 10.7099609375 18.78720238095238  10.849609375 18.727678571428573  11 18.727678571428573  Z M 3.287109375 6.09375  L 1.203125 9.84375  C 1.2102864583333335 9.873511904761905  1.2138671875 9.921875  1.2138671875 9.988839285714286  C 1.2138671875 10.063244047619047  1.2067057291666667 10.119047619047619  1.1923828125 10.15625  L 3.4267578125 14.174107142857144  L 3.587890625 14.241071428571427  L 5.607421875 12.020089285714286  L 5.607421875 8.147321428571427  L 3.5986328125 5.982142857142858  C 3.505533854166667 6.041666666666665  3.4016927083333335 6.078869047619047  3.287109375 6.09375  Z M 11 1.272321428571428  C 10.842447916666668 1.272321428571428  10.706380208333334 1.2127976190476164  10.591796875 1.09375  L 6.423828125 1.09375  L 8.46484375 3.325892857142858  L 14.416015625 1.09375  L 11.408203125 1.09375  C 11.293619791666668 1.2127976190476164  11.157552083333334 1.272321428571428  11 1.272321428571428  Z M 17.3271484375 14.620535714285714  L 18.1435546875 14.620535714285714  C 18.150716145833336 14.575892857142856  18.168619791666668 14.534970238095237  18.197265625 14.497767857142856  L 17.509765625 13.738839285714286  L 17.3271484375 14.620535714285714  Z M 12.03125 14.620535714285714  L 17.0048828125 14.620535714285714  L 17.2412109375 13.448660714285714  L 14.5341796875 10.479910714285714  L 11.3544921875 13.90625  L 12.03125 14.620535714285714  Z M 15.919921875 18.783482142857142  C 15.977213541666668 18.753720238095237  16.023763020833336 18.735119047619047  16.0595703125 18.727678571428573  L 16.2314453125 18.415178571428573  L 16.9296875 14.955357142857144  L 12.3427734375 14.955357142857144  L 15.919921875 18.783482142857142  Z M 5.97265625 18.761160714285715  C 6.072916666666667 18.798363095238095  6.151692708333334 18.84672619047619  6.208984375 18.90625  L 6.2626953125 18.90625  L 9.9365234375 14.955357142857144  L 5.9296875 14.955357142857144  L 5.9296875 18.694196428571427  L 5.97265625 18.761160714285715  Z M 5.9296875 12.154017857142856  L 5.9296875 14.620535714285714  L 10.248046875 14.620535714285714  L 10.935546875 13.883928571428573  L 7.6162109375 10.301339285714286  L 5.9296875 12.154017857142856  Z M 3.802734375 14.486607142857144  C 3.8313802083333335 14.54613095238095  3.849283854166667 14.59077380952381  3.8564453125 14.620535714285714  L 5.607421875 14.620535714285714  L 5.607421875 12.511160714285714  L 3.802734375 14.486607142857144  Z M 5.607421875 4.7544642857142865  L 3.845703125 5.412946428571428  C 3.845703125 5.420386904761902  3.8474934895833335 5.42782738095238  3.85107421875 5.435267857142858  C 3.854654947916667 5.442708333333332  3.8564453125 5.450148809523809  3.8564453125 5.4575892857142865  C 3.8564453125 5.576636904761902  3.827799479166667 5.684523809523809  3.7705078125 5.78125  L 5.607421875 7.756696428571428  L 5.607421875 4.7544642857142865  Z M 8.3681640625 3.716517857142858  L 5.9296875 4.631696428571428  L 5.9296875 8.102678571428573  L 7.5732421875 9.854910714285714  L 10.763671875 6.350446428571428  L 8.3681640625 3.716517857142858  Z M 6.080078125 1.205357142857142  C 6.037109375 1.2202380952380953  6.001302083333334 1.2313988095238093  5.97265625 1.238839285714286  L 5.9296875 1.328125  L 5.9296875 4.274553571428572  L 8.1318359375 3.448660714285714  L 6.080078125 1.205357142857142  Z M 10.9892578125 6.1049107142857135  L 15.5439453125 1.09375  L 15.3720703125 1.09375  L 8.701171875 3.59375  L 10.9892578125 6.1049107142857135  Z M 14.3193359375 10.234375  L 10.9892578125 6.584821428571428  L 7.798828125 10.100446428571427  L 11.1396484375 13.660714285714286  L 14.3193359375 10.234375  Z M 5.9296875 11.662946428571427  L 7.390625 10.066964285714286  L 5.9296875 8.493303571428573  L 5.9296875 11.662946428571427  Z M 11.6123046875 14.620535714285714  L 11.150390625 14.129464285714286  L 10.69921875 14.620535714285714  L 11.6123046875 14.620535714285714  Z M 18.69140625 6.015625  L 14.759765625 10.245535714285714  L 17.31640625 13.046875  L 18.734375 6.0825892857142865  L 18.7021484375 6.0267857142857135  L 18.69140625 6.015625  Z M 14.544921875 10  L 18.455078125 5.78125  C 18.397786458333336 5.684523809523809  18.369140625000004 5.576636904761902  18.369140625 5.4575892857142865  L 18.369140625 5.435267857142858  L 16.048828125 1.238839285714286  C 16.013020833333336 1.2313988095238093  15.966471354166668 1.2127976190476164  15.9091796875 1.183035714285714  L 11.21484375 6.350446428571428  L 14.544921875 10  Z M 3.8564453125 5.055803571428572  L 5.607421875 4.397321428571428  L 5.607421875 1.908482142857142  L 3.8564453125 5.055803571428572  Z M 5.607421875 18.113839285714285  L 5.607421875 14.955357142857144  L 3.8564453125 14.955357142857144  L 5.607421875 18.113839285714285  Z M 18.1435546875 14.955357142857144  L 17.2626953125 14.955357142857144  L 16.7470703125 17.488839285714285  L 18.1435546875 14.955357142857144  Z M 18.412109375 14.252232142857144  C 18.447916666666668 14.229910714285714  18.501627604166668 14.203869047619047  18.5732421875 14.174107142857144  L 20.796875 10.145089285714286  C 20.782552083333336 10.070684523809524  20.775390625 10.01860119047619  20.775390625 9.988839285714286  C 20.775390625 9.98139880952381  20.7861328125 9.921875  20.8076171875 9.810267857142858  L 18.970703125 6.506696428571428  L 17.5849609375 13.337053571428573  L 18.412109375 14.252232142857144  Z " fill-rule="nonzero" fill="#ffffff" stroke="none" transform="matrix(1 0 0 1 346 211 )" />
  </g>
</svg>