<?xml version="1.0" encoding="utf-8"?>
<svg version="1.1" xmlns:xlink="http://www.w3.org/1999/xlink" width="19px" height="17px" xmlns="http://www.w3.org/2000/svg">
  <g transform="matrix(1 0 0 1 -346 -269 )">
    <path d="M 2.714285714285714 2.3800000000000003  C 4.48139880952381 2.3800000000000003  5.930431547619048 3.1768750000000003  7.061383928571428 4.770625  C 6.637276785714286 5.4222916666666645  6.153087797619048 6.389166666666665  5.608816964285714 7.671250000000001  C 5.453311011904763 7.3525  5.322544642857143 7.095729166666666  5.216517857142858 6.9009374999999995  C 5.110491071428572 6.706145833333332  4.967354910714286 6.481249999999999  4.787109375 6.226249999999999  C 4.606863839285714 5.9712499999999995  4.42661830357143 5.771145833333332  4.246372767857143 5.6259375  C 4.066127232142857 5.480729166666666  3.843470982142857 5.35677083333333  3.578404017857143 5.2540625  C 3.313337053571429 5.151354166666666  3.0252976190476195 5.1000000000000005  2.714285714285714 5.1000000000000005  L 0.33928571428571425 5.1000000000000005  C 0.24032738095238096 5.1000000000000005  0.1590401785714286 5.068124999999999  0.09542410714285715 5.004375000000001  C 0.03180803571428571 4.940625000000001  0 4.859166666666666  0 4.760000000000001  L 0 2.7200000000000006  C 0 2.620833333333332  0.03180803571428571 2.5393750000000006  0.09542410714285715 2.475625  C 0.1590401785714286 2.4118749999999993  0.24032738095238096 2.3800000000000003  0.33928571428571425 2.3800000000000003  L 2.714285714285714 2.3800000000000003  Z M 18.904575892857142 13.015625  C 18.968191964285715 13.079375  19 13.160833333333331  19 13.26  C 19 13.359166666666665  18.968191964285715 13.440625  18.904575892857142 13.504375000000001  L 15.51171875 16.904375  C 15.448102678571429 16.968125  15.366815476190478 17  15.267857142857144 17  C 15.175967261904765 17  15.09644717261905 16.966354166666665  15.029296875 16.8990625  C 14.962146577380953 16.831770833333334  14.928571428571429 16.752083333333335  14.928571428571429 16.66  L 14.928571428571429 14.62  C 14.702380952380953 14.62  14.401971726190478 14.621770833333333  14.02734375 14.6253125  C 13.652715773809526 14.628854166666667  13.366443452380953 14.632395833333335  13.168526785714285 14.6359375  C 12.97061011904762 14.639479166666666  12.712611607142856 14.6359375  12.39453125 14.6253125  C 12.076450892857144 14.614687499999999  11.825520833333334 14.596979166666667  11.641741071428571 14.5721875  C 11.45796130952381 14.547395833333333  11.231770833333334 14.510208333333335  10.963169642857144 14.460625  C 10.694568452380953 14.411041666666666  10.471912202380953 14.345520833333333  10.295200892857144 14.264062500000001  C 10.118489583333334 14.182604166666666  9.913504464285715 14.081666666666665  9.680245535714285 13.96125  C 9.446986607142858 13.840833333333332  9.238467261904763 13.699166666666667  9.0546875 13.53625  C 8.870907738095239 13.373333333333335  8.67652529761905 13.183854166666666  8.471540178571429 12.9678125  C 8.26655505952381 12.751770833333332  8.068638392857142 12.505625  7.877790178571428 12.229375  C 8.29482886904762 11.570625  8.775483630952381 10.60375  9.319754464285714 9.328750000000001  C 9.475260416666668 9.6475  9.606026785714285 9.904270833333332  9.712053571428571 10.099062499999999  C 9.818080357142856 10.293854166666666  9.961216517857144 10.51875  10.141462053571429 10.77375  C 10.321707589285715 11.028749999999999  10.501953125 11.228854166666665  10.682198660714285 11.3740625  C 10.862444196428571 11.519270833333332  11.085100446428571 11.643229166666666  11.350167410714285 11.7459375  C 11.615234375 11.848645833333334  11.90327380952381 11.899999999999999  12.214285714285715 11.899999999999999  L 14.928571428571429 11.899999999999999  L 14.928571428571429 9.860000000000001  C 14.928571428571429 9.760833333333334  14.960379464285715 9.679375  15.023995535714285 9.615625000000001  C 15.087611607142856 9.551875  15.16889880952381 9.520000000000001  15.267857142857144 9.520000000000001  C 15.352678571428571 9.520000000000001  15.4375 9.555416666666666  15.522321428571429 9.626249999999999  L 18.904575892857142 13.015625  Z M 18.904575892857142 3.495624999999999  C 18.968191964285715 3.5593749999999997  19 3.6408333333333323  19 3.7399999999999993  C 19 3.8391666666666664  18.968191964285715 3.9206249999999994  18.904575892857142 3.984375  L 15.51171875 7.3843749999999995  C 15.448102678571429 7.448125  15.366815476190478 7.479999999999999  15.267857142857144 7.479999999999999  C 15.175967261904765 7.479999999999999  15.09644717261905 7.446354166666666  15.029296875 7.3790625  C 14.962146577380953 7.311770833333332  14.928571428571429 7.232083333333332  14.928571428571429 7.140000000000001  L 14.928571428571429 5.1000000000000005  L 12.214285714285715 5.1000000000000005  C 11.875 5.1000000000000005  11.567522321428571 5.153124999999999  11.291852678571429 5.2593749999999995  C 11.016183035714285 5.3656250000000005  10.77232142857143 5.5249999999999995  10.560267857142856 5.737500000000001  C 10.348214285714286 5.949999999999999  10.167968750000002 6.1678125  10.01953125 6.390937500000001  C 9.871093750000002 6.614062499999999  9.712053571428571 6.888541666666666  9.542410714285715 7.214374999999999  C 9.316220238095239 7.6535416666666665  9.040550595238097 8.259166666666667  8.715401785714286 9.03125  C 8.510416666666668 9.498750000000001  8.335472470238097 9.891874999999999  8.190569196428571 10.210625  C 8.045665922619047 10.529375  7.854817708333334 10.90125  7.618024553571428 11.32625  C 7.381231398809525 11.751249999999999  7.155040922619048 12.105416666666667  6.939453125 12.38875  C 6.7238653273809526 12.672083333333333  6.462332589285714 12.966041666666666  6.154854910714286 13.270625  C 5.847377232142858 13.575208333333334  5.529296875 13.817812499999999  5.200613839285714 13.998437500000001  C 4.87193080357143 14.1790625  4.495535714285714 14.3278125  4.071428571428571 14.4446875  C 3.647321428571429 14.5615625  3.1949404761904763 14.62  2.714285714285714 14.62  L 0.33928571428571425 14.62  C 0.24032738095238096 14.62  0.1590401785714286 14.588125  0.09542410714285715 14.524375  C 0.03180803571428571 14.460625  0 14.379166666666666  0 14.28  L 0 12.24  C 0 12.140833333333333  0.03180803571428571 12.059375  0.09542410714285715 11.995624999999999  C 0.1590401785714286 11.931875  0.24032738095238096 11.899999999999999  0.33928571428571425 11.899999999999999  L 2.714285714285714 11.899999999999999  C 3.053571428571429 11.899999999999999  3.361049107142857 11.846875  3.63671875 11.740625000000001  C 3.912388392857143 11.634374999999999  4.15625 11.475000000000001  4.368303571428571 11.2625  C 4.580357142857143 11.05  4.760602678571428 10.8321875  4.909040178571428 10.6090625  C 5.057477678571428 10.3859375  5.216517857142858 10.111458333333331  5.386160714285714 9.785625000000001  C 5.612351190476191 9.346458333333334  5.888020833333334 8.740833333333333  6.213169642857142 7.96875  C 6.418154761904763 7.501250000000001  6.593098958333334 7.108124999999999  6.738002232142858 6.789375000000001  C 6.882905505952382 6.470625  7.073753720238097 6.09875  7.310546875 5.67375  C 7.547340029761905 5.248749999999999  7.773530505952382 4.894583333333332  7.989118303571428 4.61125  C 8.204706101190476 4.327916666666666  8.466238839285714 4.033958333333332  8.773716517857142 3.7293749999999997  C 9.081194196428571 3.424791666666666  9.399274553571429 3.182187499999999  9.727957589285715 3.0015624999999995  C 10.056640625 2.8209374999999994  10.433035714285715 2.6721875000000006  10.857142857142856 2.5553124999999994  C 11.28125 2.4384375  11.733630952380953 2.3800000000000003  12.214285714285715 2.3800000000000003  L 14.928571428571429 2.3800000000000003  L 14.928571428571429 0.3400000000000003  C 14.928571428571429 0.24083333333333135  14.960379464285715 0.15937500000000038  15.023995535714285 0.09562499999999985  C 15.087611607142856 0.03187499999999932  15.16889880952381 0  15.267857142857144 0  C 15.352678571428571 0  15.4375 0.03541666666666654  15.522321428571429 0.10624999999999962  L 18.904575892857142 3.495624999999999  Z " fill-rule="nonzero" fill="#ffffff" stroke="none" transform="matrix(1 0 0 1 346 269 )" />
  </g>
</svg>