<?xml version="1.0" encoding="utf-8"?>
<svg version="1.1" xmlns:xlink="http://www.w3.org/1999/xlink" width="22px" height="14px" xmlns="http://www.w3.org/2000/svg">
  <g transform="matrix(1 0 0 1 -404 -308 )">
    <path d="M 16.334263392857142 10.967881944444443  C 17.975260416666668 9.983506944444443  19.340029761904763 8.660879629629626  20.42857142857143 7  C 19.18452380952381 5.087962962962963  17.625372023809526 3.6579861111111107  15.751116071428571 2.7100694444444438  C 16.250372023809526 3.5526620370370354  16.5 4.46412037037037  16.5 5.444444444444444  C 16.5 6.943287037037035  15.96186755952381 8.225405092592592  14.885602678571429 9.29079861111111  C 13.80933779761905 10.356192129629626  12.514136904761905 10.88888888888889  11 10.88888888888889  C 9.485863095238097 10.88888888888889  8.190662202380954 10.356192129629626  7.114397321428572 9.29079861111111  C 6.038132440476192 8.225405092592592  5.5 6.943287037037035  5.5 5.444444444444444  C 5.5 4.46412037037037  5.749627976190477 3.5526620370370354  6.248883928571428 2.7100694444444438  C 4.374627976190477 3.6579861111111107  2.8154761904761907 5.087962962962963  1.5714285714285714 7  C 2.6599702380952386 8.660879629629626  4.024739583333334 9.983506944444443  5.665736607142858 10.967881944444443  C 7.306733630952381 11.952256944444443  9.084821428571429 12.444444444444443  11 12.444444444444443  C 12.915178571428571 12.444444444444443  14.693266369047622 11.952256944444443  16.334263392857142 10.967881944444443  Z M 11.417410714285715 2.746527777777778  C 11.53199404761905 2.633101851851852  11.589285714285715 2.49537037037037  11.589285714285715 2.333333333333333  C 11.589285714285715 2.171296296296296  11.53199404761905 2.0335648148148135  11.417410714285715 1.920138888888889  C 11.302827380952383 1.8067129629629615  11.163690476190476 1.7499999999999984  11 1.75  C 9.976934523809524 1.7499999999999984  9.099144345238097 2.11255787037037  8.366629464285715 2.8376736111111107  C 7.634114583333334 3.562789351851852  7.267857142857142 4.431712962962963  7.267857142857142 5.444444444444444  C 7.267857142857142 5.606481481481481  7.325148809523811 5.744212962962963  7.439732142857142 5.857638888888889  C 7.554315476190477 5.971064814814813  7.693452380952381 6.027777777777779  7.857142857142858 6.027777777777779  C 8.020833333333334 6.027777777777779  8.159970238095239 5.971064814814813  8.274553571428571 5.857638888888889  C 8.389136904761905 5.744212962962963  8.446428571428571 5.606481481481481  8.446428571428571 5.444444444444444  C 8.446428571428571 4.747685185185185  8.696056547619047 4.152199074074074  9.1953125 3.6579861111111107  C 9.694568452380954 3.163773148148148  10.296130952380954 2.9166666666666656  11 2.916666666666667  C 11.163690476190476 2.9166666666666656  11.302827380952383 2.8599537037037024  11.417410714285715 2.746527777777778  Z M 21.754464285714285 6.161458333333333  C 21.918154761904763 6.445023148148148  22 6.724537037037035  22 7  C 22 7.275462962962962  21.918154761904763 7.554976851851852  21.754464285714285 7.838541666666666  C 20.608630952380956 9.701967592592592  19.0678943452381 11.194733796296298  17.132254464285715 12.316840277777779  C 15.196614583333334 13.43894675925926  13.152529761904763 14  11 14  C 8.847470238095239 14  6.803385416666667 13.436921296296298  4.867745535714286 12.31076388888889  C 2.932105654761905 11.184606481481481  1.391369047619048 9.69386574074074  0.2455357142857143 7.838541666666666  C 0.0818452380952381 7.554976851851852  0 7.275462962962962  0 7  C 0 6.724537037037035  0.0818452380952381 6.445023148148148  0.2455357142857143 6.161458333333333  C 1.391369047619048 4.306134259259259  2.932105654761905 2.8153935185185177  4.867745535714286 1.689236111111111  C 6.803385416666667 0.5630787037037026  8.847470238095239 0  11 0  C 13.152529761904763 0  15.196614583333334 0.5630787037037026  17.132254464285715 1.689236111111111  C 19.0678943452381 2.8153935185185177  20.608630952380956 4.306134259259259  21.754464285714285 6.161458333333333  Z " fill-rule="nonzero" fill="#fdfdfd" stroke="none" transform="matrix(1 0 0 1 404 308 )" />
  </g>
</svg>