<?xml version="1.0" encoding="utf-8"?>
<svg version="1.1" xmlns:xlink="http://www.w3.org/1999/xlink" width="16px" height="4px" xmlns="http://www.w3.org/2000/svg">
  <g transform="matrix(1 0 0 1 -465 -287 )">
    <path d="M 4.045454545454546 0.2916666666666665  C 4.257575757575757 0.4861111111111094  4.363636363636363 0.7222222222222214  4.363636363636363 1  L 4.363636363636363 3  C 4.363636363636363 3.2777777777777772  4.257575757575757 3.513888888888888  4.045454545454546 3.7083333333333335  C 3.833333333333334 3.9027777777777772  3.575757575757576 4  3.272727272727273 4  L 1.0909090909090908 4  C 0.787878787878788 4  0.5303030303030304 3.9027777777777772  0.3181818181818182 3.7083333333333335  C 0.10606060606060605 3.513888888888888  0 3.2777777777777772  0 3  L 0 1  C 0 0.7222222222222214  0.10606060606060605 0.4861111111111094  0.3181818181818182 0.2916666666666665  C 0.5303030303030304 0.09722222222222143  0.787878787878788 0  1.0909090909090908 0  L 3.272727272727273 0  C 3.575757575757576 0  3.833333333333334 0.09722222222222143  4.045454545454546 0.2916666666666665  Z M 9.863636363636363 0.2916666666666665  C 10.075757575757576 0.4861111111111094  10.181818181818182 0.7222222222222214  10.181818181818182 1  L 10.181818181818182 3  C 10.181818181818182 3.2777777777777772  10.075757575757576 3.513888888888888  9.863636363636363 3.7083333333333335  C 9.651515151515154 3.9027777777777772  9.393939393939394 4  9.090909090909092 4  L 6.909090909090909 4  C 6.606060606060606 4  6.3484848484848495 3.9027777777777772  6.136363636363637 3.7083333333333335  C 5.924242424242425 3.513888888888888  5.818181818181818 3.2777777777777772  5.818181818181818 3  L 5.818181818181818 1  C 5.818181818181818 0.7222222222222214  5.924242424242425 0.4861111111111094  6.136363636363637 0.2916666666666665  C 6.3484848484848495 0.09722222222222143  6.606060606060606 0  6.909090909090909 0  L 9.090909090909092 0  C 9.393939393939394 0  9.651515151515154 0.09722222222222143  9.863636363636363 0.2916666666666665  Z M 15.681818181818182 0.2916666666666665  C 15.893939393939394 0.4861111111111094  16 0.7222222222222214  16 1  L 16 3  C 16 3.2777777777777772  15.893939393939394 3.513888888888888  15.681818181818182 3.7083333333333335  C 15.46969696969697 3.9027777777777772  15.212121212121213 4  14.909090909090908 4  L 12.727272727272727 4  C 12.424242424242426 4  12.166666666666668 3.9027777777777772  11.954545454545455 3.7083333333333335  C 11.742424242424244 3.513888888888888  11.636363636363637 3.2777777777777772  11.636363636363637 3  L 11.636363636363637 1  C 11.636363636363637 0.7222222222222214  11.742424242424244 0.4861111111111094  11.954545454545455 0.2916666666666665  C 12.166666666666668 0.09722222222222143  12.424242424242426 0  12.727272727272727 0  L 14.909090909090908 0  C 15.212121212121213 0  15.46969696969697 0.09722222222222143  15.681818181818182 0.2916666666666665  Z " fill-rule="nonzero" fill="#ffffff" stroke="none" transform="matrix(1 0 0 1 465 287 )" />
  </g>
</svg>